The.Green.Slime.1968.DVDRip.x264-ShitBusters

File Size: 1,09GB

Resolution: 716 x 356

Video: MPEG4 Video (H264) 716x356 (867:356) 23.976fps [Video]

Audio: Dolby AC3 48000Hz stereo [Audio]


General
Complete name                  : The.Green.Slime.1968.DVDRip.x264-ShitBusters.mkv
Format                         : Matroska
Format version                 : Version 2
File size                      : 1.09 GiB
Duration                       : 1h 30mn
Overall bit rate               : 1 734 Kbps
Encoded date                   : UTC 2011-02-28 08:55:09
Writing application            : mkvmerge v3.4.0 ('Rapunzel') built on May 15 2010 09:38:20
Writing library                : libebml v0.8.0 + libmatroska v0.9.0

Video
ID                             : 1
Format                         : AVC
Format/Info                    : Advanced Video Codec
Format profile                 : High@L4.1
Format settings, CABAC         : Yes
Format settings, ReFrames      : 16 frames
Codec ID                       : V_MPEG4/ISO/AVC
Duration                       : 1h 30mn
Bit rate                       : 1 540 Kbps
Width                          : 716 pixels
Height                         : 356 pixels
Display aspect ratio           : 2.40:1
Original display aspect ratio  : 2.40:1
Frame rate                     : 23.976 fps
Color space                    : YUV
Chroma subsampling             : 4:2:0
Bit depth                      : 8 bits
Scan type                      : Progressive
Bits/(Pixel*Frame)             : 0.252
Stream size                    : 972 MiB (87%)
Title                          : The Green Slime (1968)
Writing library                : x264 core 114 r1913 5fd3dce
Default                        : No
Forced                         : No

Audio
ID                             : 2
Format                         : AC-3
Format/Info                    : Audio Coding 3
Mode extension                 : CM (complete main)
Format settings, Endianness    : Big
Codec ID                       : A_AC3
Duration                       : 1h 30mn
Bit rate mode                  : Constant
Bit rate                       : 192 Kbps
Channel(s)                     : 2 channels
Channel positions              : Front: L R
Sampling rate                  : 48.0 KHz
Bit depth                      : 16 bits
Compression mode               : Lossy
Stream size                    : 124 MiB (11%)
Title                          : English Audio (AC3 @ 192 kbps, 2 channels)
Language                       : English
Default                        : Yes
Forced                         : No
